HIERARCHY
ROOT Hips
{
  OFFSET -21.6994 31.6921 0
  CHANNELS 6 Xposition Yposition Zposition Zrotation Xrotation Yrotation
  JOINT Bip01_Pelvis
  {
    OFFSET 0 0 0
    CHANNELS 6 Xposition Yposition Zposition Zrotation Xrotation Yrotation
    JOINT BN_Tail_01
    {
      OFFSET -7.25226 -1.74978 0
      CHANNELS 6 Xposition Yposition Zposition Zrotation Xrotation Yrotation
      JOINT BN_Tail_02
      {
        OFFSET 15.788 0 0
        CHANNELS 6 Xposition Yposition Zposition Zrotation Xrotation Yrotation
        JOINT BN_Tail_03
        {
          OFFSET 16.0015 0 0
          CHANNELS 6 Xposition Yposition Zposition Zrotation Xrotation Yrotation
          JOINT BN_Tail_04
          {
            OFFSET 16.1689 0 0
            CHANNELS 6 Xposition Yposition Zposition Zrotation Xrotation Yrotation
            End Site
            {
              OFFSET 0 0 0
            }
          }
        }
      }
    }
    JOINT Bip01_Spine
    {
      OFFSET 6.38383 2.70859 0.585432
      CHANNELS 6 Xposition Yposition Zposition Zrotation Xrotation Yrotation
      JOINT BN_Mane_02
      {
        OFFSET 6.12662 8.45826 0
        CHANNELS 6 Xposition Yposition Zposition Zrotation Xrotation Yrotation
        End Site
        {
          OFFSET 0 0 0
        }
      }
      JOINT Bip01_R_Thigh
      {
        OFFSET -7.04074 -2.18223 -5.47025
        CHANNELS 6 Xposition Yposition Zposition Zrotation Xrotation Yrotation
        JOINT Bip01_R_Calf
        {
          OFFSET 13.6591 0 0
          CHANNELS 6 Xposition Yposition Zposition Zrotation Xrotation Yrotation
          JOINT Bip01_R_HorseLink
          {
            OFFSET 9.07516 0 0
            CHANNELS 6 Xposition Yposition Zposition Zrotation Xrotation Yrotation
            JOINT Bip01_R_Foot
            {
              OFFSET 8.13856 0 0
              CHANNELS 6 Xposition Yposition Zposition Zrotation Xrotation Yrotation
              JOINT Bip01_R_Toe0
              {
                OFFSET 3.79737 6.30086 0
                CHANNELS 6 Xposition Yposition Zposition Zrotation Xrotation Yrotation
                JOINT Bip01_R_Toe0Nub
                {
                  OFFSET 0.838764 0 0
                  CHANNELS 6 Xposition Yposition Zposition Zrotation Xrotation Yrotation
                  End Site
                  {
                    OFFSET 0 0 0
                  }
                }
              }
            }
          }
        }
      }
      JOINT Bip01_L_Thigh
      {
        OFFSET -6.18667 -2.14873 5.3508
        CHANNELS 6 Xposition Yposition Zposition Zrotation Xrotation Yrotation
        JOINT Bip01_L_Calf
        {
          OFFSET 13.6591 0 0
          CHANNELS 6 Xposition Yposition Zposition Zrotation Xrotation Yrotation
          JOINT Bip01_L_HorseLink
          {
            OFFSET 9.07515 0 0
            CHANNELS 6 Xposition Yposition Zposition Zrotation Xrotation Yrotation
            JOINT Bip01_L_Foot
            {
              OFFSET 8.13856 0 0
              CHANNELS 6 Xposition Yposition Zposition Zrotation Xrotation Yrotation
              JOINT Bip01_L_Toe0
              {
                OFFSET 3.79737 6.30086 0
                CHANNELS 6 Xposition Yposition Zposition Zrotation Xrotation Yrotation
                JOINT Bip01_L_Toe0Nub
                {
                  OFFSET 0.838764 0 0
                  CHANNELS 6 Xposition Yposition Zposition Zrotation Xrotation Yrotation
                  End Site
                  {
                    OFFSET 0 0 0
                  }
                }
              }
            }
          }
        }
      }
      JOINT Bip01_Spine1
      {
        OFFSET 12.1687 -0.0105438 0
        CHANNELS 6 Xposition Yposition Zposition Zrotation Xrotation Yrotation
        JOINT BN_Mane_R_01
        {
          OFFSET -0.157498 5.09008 -6.54008
          CHANNELS 6 Xposition Yposition Zposition Zrotation Xrotation Yrotation
          End Site
          {
            OFFSET 0 0 0
          }
        }
        JOINT BN_Mane_R_02
        {
          OFFSET -0.1575 5.09007 6.54
          CHANNELS 6 Xposition Yposition Zposition Zrotation Xrotation Yrotation
          End Site
          {
            OFFSET 0 0 0
          }
        }
        JOINT BN_Mane_01
        {
          OFFSET 8.29709 8.50414 0
          CHANNELS 6 Xposition Yposition Zposition Zrotation Xrotation Yrotation
          End Site
          {
            OFFSET 0 0 0
          }
        }
        JOINT Bip01_Spine2
        {
          OFFSET 13.2802 -0.0100708 1.51992e-005
          CHANNELS 6 Xposition Yposition Zposition Zrotation Xrotation Yrotation
          JOINT Bip01_Neck
          {
            OFFSET 12.4891 -6.66662 0
            CHANNELS 6 Xposition Yposition Zposition Zrotation Xrotation Yrotation
            JOINT Bip01_R_Clavicle
            {
              OFFSET -7.4542 -2.82621 -1.17874
              CHANNELS 6 Xposition Yposition Zposition Zrotation Xrotation Yrotation
              JOINT Bip01_R_UpperArm
              {
                OFFSET 13.2557 0 0
                CHANNELS 6 Xposition Yposition Zposition Zrotation Xrotation Yrotation
                JOINT Bip01_R_Forearm
                {
                  OFFSET 12.8897 0 0
                  CHANNELS 6 Xposition Yposition Zposition Zrotation Xrotation Yrotation
                  JOINT Bip01_R_Hand
                  {
                    OFFSET 11.2622 0 0
                    CHANNELS 6 Xposition Yposition Zposition Zrotation Xrotation Yrotation
                    JOINT Bip01_R_Finger0
                    {
                      OFFSET 3.98015 -0.208661 -0.0949803
                      CHANNELS 6 Xposition Yposition Zposition Zrotation Xrotation Yrotation
                      JOINT Bip01_R_Finger0Nub
                      {
                        OFFSET 6.57561 0 0
                        CHANNELS 6 Xposition Yposition Zposition Zrotation Xrotation Yrotation
                        End Site
                        {
                          OFFSET 0 0 0
                        }
                      }
                    }
                  }
                }
              }
            }
            JOINT Bip01_L_Clavicle
            {
              OFFSET -7.4541 -2.82679 1.17708
              CHANNELS 6 Xposition Yposition Zposition Zrotation Xrotation Yrotation
              JOINT Bip01_L_UpperArm
              {
                OFFSET 13.2558 0 0
                CHANNELS 6 Xposition Yposition Zposition Zrotation Xrotation Yrotation
                JOINT Bip01_L_Forearm
                {
                  OFFSET 12.8897 0 0
                  CHANNELS 6 Xposition Yposition Zposition Zrotation Xrotation Yrotation
                  JOINT Bip01_L_Hand
                  {
                    OFFSET 11.2622 0 0
                    CHANNELS 6 Xposition Yposition Zposition Zrotation Xrotation Yrotation
                    JOINT Bip01_L_Finger0
                    {
                      OFFSET 3.98014 -0.20866 0.0949764
                      CHANNELS 6 Xposition Yposition Zposition Zrotation Xrotation Yrotation
                      JOINT Bip01_L_Finger0Nub
                      {
                        OFFSET 6.57562 0 0
                        CHANNELS 6 Xposition Yposition Zposition Zrotation Xrotation Yrotation
                        End Site
                        {
                          OFFSET 0 0 0
                        }
                      }
                    }
                  }
                }
              }
            }
            JOINT Bip01_Neck1
            {
              OFFSET 4.19352 -0.00332451 0
              CHANNELS 6 Xposition Yposition Zposition Zrotation Xrotation Yrotation
              JOINT Bip01_Head
              {
                OFFSET 4.17604 0.298252 0
                CHANNELS 6 Xposition Yposition Zposition Zrotation Xrotation Yrotation
                JOINT BN_Eye_R_01
                {
                  OFFSET 6.53258 -3.90694 -2.55361
                  CHANNELS 6 Xposition Yposition Zposition Zrotation Xrotation Yrotation
                  End Site
                  {
                    OFFSET 0 0 0
                  }
                }
                JOINT BN_Eye_L_01
                {
                  OFFSET 6.5326 -3.90694 2.55371
                  CHANNELS 6 Xposition Yposition Zposition Zrotation Xrotation Yrotation
                  End Site
                  {
                    OFFSET 0 0 0
                  }
                }
                JOINT BN_Ear_R_01
                {
                  OFFSET 1.75934 -4.1584 -4.45634
                  CHANNELS 6 Xposition Yposition Zposition Zrotation Xrotation Yrotation
                  End Site
                  {
                    OFFSET 0 0 0
                  }
                }
                JOINT BN_Ear_L_01
                {
                  OFFSET 1.75933 -4.15841 4.45616
                  CHANNELS 6 Xposition Yposition Zposition Zrotation Xrotation Yrotation
                  End Site
                  {
                    OFFSET 0 0 0
                  }
                }
                JOINT BN_Beard_L_01
                {
                  OFFSET 11.2964 -1.06183 2.32054
                  CHANNELS 6 Xposition Yposition Zposition Zrotation Xrotation Yrotation
                  End Site
                  {
                    OFFSET 0 0 0
                  }
                }
                JOINT BN_Beard_R_01
                {
                  OFFSET 11.2964 -1.06182 -2.32036
                  CHANNELS 6 Xposition Yposition Zposition Zrotation Xrotation Yrotation
                  End Site
                  {
                    OFFSET 0 0 0
                  }
                }
                JOINT BN_Mouth_0
                {
                  OFFSET 1.3149 1.30001 0
                  CHANNELS 6 Xposition Yposition Zposition Zrotation Xrotation Yrotation
                  End Site
                  {
                    OFFSET 0 0 0
                  }
                }
                JOINT Bip01_HeadNub
                {
                  OFFSET 12.6869 0 0
                  CHANNELS 6 Xposition Yposition Zposition Zrotation Xrotation Yrotation
                  End Site
                  {
                    OFFSET 0 0 0
                  }
                }
              }
            }
          }
        }
      }
    }
  }
}
MOTION
Frames:	4
Frame Time:	0.0333333
-21.6994 27.9295 0 -180 -90 -90 0 1.13687e-013 0 -89.9973 1.65211 -89.9979 -7.25225 -1.74978 2.91038e-011 -29.1274 10.7084 175.776 15.788 -7.6294e-006 0 -41.2179 20.3668 12.9498 16.0015 1.77636e-015 -4.76837e-007 -42.0231 -3.58053 28.6145 16.1689 1.90735e-006 -3.8147e-006 -36.0002 -0.229437 30.8263 6.33245 2.89308 2.53998e-006 21.992 -1.16569e-010 1.26202e-010 6.12662 8.45826 2.91038e-011 -88.9944 -0.0323181 -179.967 -6.95508 -0.311037 -5.42737 -90.5723 0.999452 173.787 13.6591 -1.90735e-006 -4.76837e-007 -41.5484 7.2992e-006 6.50032e-006 9.07516 1.90735e-006 -4.76837e-007 35.8068 -0.00332825 0.00106625 8.13855 7.10543e-015 0.000599384 26.3825 3.07596 5.43333 3.79727 6.30092 0.000617027 89.9467 1.2638e-009 -2.34072e-009 0.838764 2.98023e-008 1.77636e-015 -2.49269e-008 -4.1922e-010 -2.34537e-009 -6.95507 -0.311064 5.42738 -141.705 -2.31182 -176.828 13.6591 0 0 -90.011 -1.01612e-005 9.63656e-006 9.07517 0 4.76837e-007 61.8399 5.5429e-006 -8.8337e-006 8.13855 -3.8147e-006 -4.76837e-007 -3.11 -12.8571 -4.00196 3.79738 6.30085 -1.77636e-015 89.9995 6.55499e-005 -12.4979 0.838766 2.98023e-008 0 -179.96 0.000454164 -0.000393996 12.1681 -0.0104809 5.82077e-011 -7.77667 -3.76115e-011 4.88966e-011 -0.1575 5.09008 -6.54008 -92.7406 -0.022027 -167.965 -0.157503 5.09007 6.54 87.255 -0.000390274 12.0139 8.29709 8.50413 -1.0842e-019 -91.651 -0.0228119 -179.978 13.2792 -0.0098629 1.0842e-019 -14.6228 -1.52928e-011 -1.78909e-011 12.4882 -6.66643 -8.73115e-011 -19.6204 3.58167e-010 -1.6524e-011 -6.4536 -4.6782 -1.17794 -160.428 -52.226 111.902 13.2557 -3.55271e-015 0 135.848 80.8846 -165.125 12.8897 -3.8147e-006 -9.53674e-007 -65.188 -6.91077e-006 -1.54004e-005 11.2622 4.76837e-007 -1.77636e-015 -94.1697 72.8762 125.921 3.98015 -0.208658 -0.0949765 2.06108 8.51483 -35.8328 6.57562 2.38418e-007 -1.19209e-007 179.96 1.7292e-005 1.73296e-005 -6.45361 -4.67821 1.17789 -160.44 55.331 -93.644 13.2558 0 -9.53674e-007 69.3212 -12.879 93.6778 12.8897 9.53674e-007 1.77636e-015 -121.349 2.54934e-006 -5.63772e-007 11.2623 1.77636e-015 0 -29.8447 -84.2967 -50.9448 3.98016 -0.208661 0.0949821 14.2321 -11.4819 62.2536 6.57563 2.86102e-006 1.19209e-007 1.46954e-007 -1.12795e-009 -5.55533e-009 4.195 -0.00313187 8.73115e-011 20.5971 -1.37233e-010 1.04057e-010 4.17603 0.298256 -2.03727e-010 4.32702 -5.42655e-011 6.43566e-012 6.53258 -3.90694 -2.55361 133.025 18.1401 163.593 6.5326 -3.90695 2.55371 -46.976 18.1112 -16.4184 1.75935 -4.1584 -4.45634 24.7931 -39.7306 142.462 1.75933 -4.15841 4.45617 -155.196 -39.7317 -37.5282 11.2964 -1.06184 2.32054 151.29 -2.13808 -90.0001 11.2964 -1.06183 -2.32036 -28.7077 -2.13817 89.9962 1.31489 1.30001 2.03727e-010 -142.031 -0.0374451 -179.987 12.6869 -3.8147e-006 2.1684e-019 -4.48321e-008 1.3067e-011 -1.34232e-010 
-22.4199 27.6396 -3.55268e-008 -0.10997 -90 90 0 1.13687e-013 0 -89.9968 1.65213 -89.9979 -7.25225 -1.74978 2.91045e-011 -28.1907 10.7303 174.892 15.788 -7.6294e-006 7.10543e-015 -35.82 20.1801 10.1049 16.0015 1.42109e-014 -4.76837e-007 -41.7484 -5.01842 28.9602 16.1689 1.90735e-006 -3.8147e-006 -35.8471 -3.33083 28.6333 6.33227 2.89302 2.53998e-006 20.8103 -0.0652449 0.349543 6.12662 8.45826 4.11498e-009 -88.9944 -0.0313721 -179.968 -6.91343 -0.448188 -5.47056 -92.5869 1.74769 173.85 13.6591 -1.90735e-006 -4.76837e-007 -49.0454 6.3694e-006 7.41783e-006 9.07516 1.90735e-006 -4.76837e-007 42.5697 -0.00244701 0.00224823 8.13855 1.59162e-012 0.000599384 24.3078 3.21932 5.48688 3.79727 6.30092 0.000617027 89.6414 -1.22554e-011 -2.98123e-009 0.838764 2.98023e-008 5.32907e-015 -2.49269e-008 -4.1922e-010 -2.34537e-009 -6.97906 -0.459089 5.38345 -142.352 -2.27961 -176.584 13.6591 -2.22045e-015 -4.44089e-015 -91.7768 -1.0483e-005 9.3222e-006 9.07517 -3.55271e-015 4.76837e-007 64.3829 5.18868e-006 -9.07084e-006 8.13855 -3.8147e-006 -4.76837e-007 -5.28676 -13.0065 -3.94055 3.79738 6.30085 -6.75733e-010 89.6544 -0.00260826 -12.5967 0.838766 2.98023e-008 0 -179.96 0.000454164 -0.000393996 12.1681 -0.0104809 5.31452e-011 -6.57001 -0.0272239 -0.266891 -0.1575 5.09008 -6.54008 -92.7406 -0.0220269 -167.965 -0.157503 5.09007 6.54 87.255 -0.000389746 12.0139 8.29709 8.50413 6.15167e-010 -91.651 -0.0231171 -179.978 13.2792 -0.0098629 -7.13513e-013 -13.7551 -0.0265834 -0.547555 12.4882 -6.66643 3.05075e-011 -12.8462 -2.73353e-008 -2.57795e-010 -6.96031 -3.88392 -1.17793 -167.208 -51.3889 112.508 13.2557 -7.10543e-015 1.42109e-014 114.515 78.0172 -145.156 12.8897 -3.8147e-006 -9.53674e-007 -73.1867 -4.73398e-006 -1.64363e-005 11.2622 4.76837e-007 -8.88179e-015 -91.7878 72.4271 123.99 3.98015 -0.208658 -0.0949765 2.03703 8.51781 -31.7198 6.57562 2.38418e-007 -1.19209e-007 179.96 1.7292e-005 1.73293e-005 -6.96031 -3.88393 1.1779 -167.203 55.5432 -94.7009 13.2558 -3.55271e-015 -9.53674e-007 70.363 -14.3617 93.5577 12.8897 9.53674e-007 0 -123.374 2.4685e-006 -4.83445e-007 11.2623 1.06581e-014 -3.55271e-015 -27.1765 -84.913 -51.6585 3.98016 -0.208661 0.0949821 14.2411 -11.4769 62.251 6.57563 2.86102e-006 1.19209e-007 1.46954e-007 -1.12795e-009 -5.55533e-009 4.195 -0.00313187 8.5852e-011 11.9176 0.061186 0.160978 4.17603 0.298256 -2.004e-010 10.2993 -0.277641 -0.606169 6.53258 -3.90694 -2.55361 133.025 18.1401 163.593 6.5326 -3.90695 2.55371 -46.976 18.1112 -16.4184 1.75935 -4.1584 -4.45634 24.7904 -39.8543 142.812 1.75933 -4.15841 4.45617 -155.2 -39.8552 -37.1798 11.2964 -1.06184 2.32054 151.354 -2.70103 -90.0233 11.2964 -1.06183 -2.32036 -28.8426 -3.43434 90.0523 1.31489 1.30001 -6.4572e-010 -142.642 -0.0328217 -179.989 12.6869 -3.8147e-006 1.33227e-015 -4.48321e-008 1.3067e-011 -1.34232e-010 
-23.164 27.3394 -7.22286e-008 65.6633 -90 155.937 0 1.13687e-013 0 -89.9974 1.65211 -89.9977 -7.25225 -1.74978 2.9104e-011 -27.2091 10.7162 174.128 15.788 -7.6294e-006 1.06581e-014 -30.7938 19.9626 7.45511 16.0015 1.06581e-014 -4.76837e-007 -41.4006 -6.29306 29.2587 16.1689 1.90735e-006 -3.8147e-006 -35.8135 -6.37659 26.4819 6.33209 2.89295 2.53998e-006 19.6891 -0.148267 0.700124 6.12662 8.45826 7.84766e-009 -88.9945 -0.030426 -179.969 -6.8681 -0.575017 -5.51357 -94.3726 2.51747 173.901 13.6591 -1.90735e-006 -4.76837e-007 -55.6708 5.46559e-006 8.13569e-006 9.07516 1.90735e-006 -4.76837e-007 48.8569 -0.0021861 0.00250271 8.13855 3.4035e-012 0.000599384 22.1784 3.37189 5.54897 3.79727 6.30092 0.000617027 89.342 1.04975e-009 -2.30061e-009 0.838764 2.98023e-008 3.55271e-015 -2.49269e-008 -4.1922e-010 -2.34537e-009 -7.00257 -0.604241 5.34037 -143.181 -2.27443 -176.338 13.6591 4.44089e-015 -3.55271e-015 -93.4106 -1.07759e-005 9.02592e-006 9.07517 0 4.76837e-007 66.7305 4.85362e-006 -9.27858e-006 8.13855 -3.8147e-006 -4.76837e-007 -7.46367 -13.1775 -3.86688 3.79738 6.30085 -1.53444e-009 89.3159 -0.00464048 -12.6937 0.838766 2.98023e-008 -1.77636e-015 -179.96 0.000454164 -0.000393996 12.1681 -0.0104809 4.85202e-011 -5.37398 -0.0660706 -0.531761 -0.1575 5.09008 -6.54008 -92.7406 -0.0220269 -167.965 -0.157503 5.09007 6.54 87.255 -0.000389746 12.0139 8.29709 8.50413 1.28547e-009 -91.651 -0.0234222 -179.977 13.2792 -0.0098629 -1.49092e-012 -12.9403 -0.0689546 -1.09892 12.4882 -6.66643 5.80729e-010 -6.2035 -2.65426e-008 -6.68424e-010 -7.36376 -3.05269 -1.17791 -173.851 -50.5652 113.096 13.2557 -7.10543e-015 -1.77636e-014 103.713 74.7467 -135.692 12.8897 -3.8147e-006 -9.53674e-007 -80.4242 -2.61971e-006 -1.71121e-005 11.2622 4.76837e-007 -5.32907e-015 -89.6791 72.0275 122.075 3.98015 -0.208658 -0.0949765 2.01464 8.5183 -27.3016 6.57562 2.38418e-007 -1.19209e-007 179.96 1.72919e-005 1.7329e-005 -7.36376 -3.0527 1.17791 -173.854 55.7598 -95.721 13.2558 0 -9.53674e-007 71.5469 -16.1494 93.4414 12.8897 9.53674e-007 0 -125.711 2.7905e-006 -5.65485e-008 11.2623 2.30926e-014 5.32907e-015 -23.8469 -85.6304 -52.2669 3.98016 -0.208661 0.0949821 14.2707 -11.4656 62.3436 6.57563 2.86102e-006 1.19209e-007 1.46954e-007 -1.12795e-009 -5.55533e-009 4.195 -0.00313187 8.61536e-011 3.40647 0.0971614 0.325991 4.17603 0.298256 -1.82e-010 16.1321 -0.543715 -1.19454 6.53258 -3.90694 -2.55361 133.025 18.1401 163.594 6.5326 -3.90695 2.55371 -46.976 18.1112 -16.4184 1.75935 -4.1584 -4.45634 24.7887 -39.9756 143.156 1.75933 -4.15841 4.45617 -155.204 -39.9763 -36.8375 11.2964 -1.06184 2.32054 151.523 -4.19947 -90.1318 11.2964 -1.06183 -2.32036 -29.1799 -6.72703 90.404 1.31489 1.30001 -2.19604e-009 -144.256 -0.0311432 -179.99 12.6869 -3.8147e-006 4.44089e-015 -4.48321e-008 1.30671e-011 -1.34232e-010 
-23.9467 27.023 -1.10839e-007 -0.48214 -90 90 0 1.13687e-013 0 -89.9974 1.65208 -89.9977 -7.25225 -1.74978 2.91046e-011 -26.137 10.6892 173.347 15.788 -7.6294e-006 2.13163e-014 -25.9825 19.7126 4.92201 16.0015 7.10543e-015 -4.76837e-007 -40.9672 -7.43698 29.5088 16.1689 1.90735e-006 -3.8147e-006 -35.958 -9.19252 24.7975 6.33191 2.89288 2.53998e-006 18.5666 -0.239022 1.05255 6.12662 8.45826 1.12099e-008 -88.9945 -0.0294647 -179.97 -6.82232 -0.703101 -5.557 -96.0414 3.20911 174.045 13.6591 -1.90735e-006 -4.76837e-007 -61.8032 4.56951e-006 8.71947e-006 9.07516 1.90735e-006 -4.76837e-007 54.9049 -0.00191027 0.00271913 8.13855 4.99512e-012 0.000599384 19.9728 3.53705 5.62318 3.79727 6.30092 0.000617027 89.0396 -3.83155e-010 -2.95046e-009 0.838764 2.98023e-008 1.77636e-015 -2.49269e-008 -4.1922e-010 -2.34537e-009 -7.02225 -0.748426 5.29581 -144.168 -2.29453 -176.088 13.6591 -6.66134e-015 -2.66454e-015 -94.936 -1.10468e-005 8.74491e-006 9.07517 -2.84217e-014 4.76837e-007 68.9091 4.53743e-006 -9.46303e-006 8.13855 -3.8147e-006 -4.76837e-007 -9.66349 -13.3528 -3.79929 3.79738 6.30085 -2.52713e-009 88.9741 -0.00610907 -12.7915 0.838766 2.98023e-008 1.77636e-015 -179.96 0.000454164 -0.000393996 12.1681 -0.0104809 4.43544e-011 -4.15991 -0.111111 -0.79493 -0.1575 5.09008 -6.54008 -92.7406 -0.0220269 -167.965 -0.157503 5.09007 6.54 87.255 -0.000389803 12.0139 8.29709 8.50413 2.02737e-009 -91.651 -0.0237274 -179.977 13.2792 -0.0098629 -2.35134e-012 -12.1259 -0.12622 -1.65934 12.4882 -6.66643 1.56742e-009 -2.90646 -1.82335e-008 -7.76487e-010 -7.5277 -2.62347 -1.17789 -177.146 -49.7392 113.689 13.2557 1.06581e-014 1.42109e-014 97.3159 71.5004 -130.669 12.8897 -3.8147e-006 -9.53674e-007 -87.177 -5.5268e-007 -1.74996e-005 11.2622 4.76837e-007 -7.10543e-015 -87.7471 71.6587 120.123 3.98015 -0.208658 -0.0949765 1.98806 8.51767 -22.7449 6.57562 2.38418e-007 -1.19209e-007 179.96 1.72919e-005 1.73287e-005 -7.5277 -2.62348 1.17794 -177.156 55.9721 -96.7429 13.2558 7.10543e-015 -9.53674e-007 72.9099 -18.3993 93.3763 12.8897 9.53674e-007 -7.10543e-015 -128.218 2.45042e-006 -9.14795e-009 11.2623 1.06581e-014 1.77636e-015 -19.295 -86.4576 -52.2231 3.98016 -0.208661 0.0949821 14.3171 -11.4428 62.5242 6.57563 2.86102e-006 1.19209e-007 1.46954e-007 -1.12795e-009 -5.55533e-009 4.195 -0.00313187 8.70725e-011 -1.266 -3.36026e-008 -1.51179e-007 4.17603 0.298256 -1.39387e-010 20.0321 -0.118487 -1.19365 6.53258 -3.90694 -2.55361 133.025 18.1401 163.594 6.5326 -3.90695 2.55371 -46.976 18.1112 -16.4184 1.75935 -4.1584 -4.45634 24.788 -40.0981 143.504 1.75933 -4.15841 4.45617 -155.206 -40.0987 -36.4912 11.2964 -1.06184 2.32054 151.769 -6.47638 -90.43 11.2964 -1.06183 -2.32036 -29.5861 -11.3667 91.4268 1.31489 1.30001 -3.77846e-009 -146.692 -0.0589295 -179.982 12.6869 -3.8147e-006 6.66134e-015 -4.48321e-008 1.30671e-011 -1.34231e-010 
